{
 "cells": [
  {
   "cell_type": "code",
   "execution_count": 76,
   "metadata": {},
   "outputs": [
    {
     "name": "stdout",
     "output_type": "stream",
     "text": [
      "Running: ffmpeg -i WorldWander/static/videos/comparison/three2one/case5/TrajectoryCrafter.mp4 -vcodec libx265 -crf 26 -preset slow -acodec aac -b:a 96k -movflags +faststart -y WorldWander/static/videos/comparison/three2one/case5/TrajectoryCrafter_compressed.mp4\n"
     ]
    },
    {
     "name": "stderr",
     "output_type": "stream",
     "text": [
      "ffmpeg version 7.1 Copyright (c) 2000-2024 the FFmpeg developers\n",
      "  built with Apple clang version 16.0.0 (clang-1600.0.26.4)\n",
      "  configuration: --prefix=/opt/homebrew/Cellar/ffmpeg/7.1_2 --enable-shared --enable-pthreads --enable-version3 --cc=clang --host-cflags= --host-ldflags='-Wl,-ld_classic' --enable-ffplay --enable-gnutls --enable-gpl --enable-libaom --enable-libaribb24 --enable-libbluray --enable-libdav1d --enable-libharfbuzz --enable-libjxl --enable-libmp3lame --enable-libopus --enable-librav1e --enable-librist --enable-librubberband --enable-libsnappy --enable-libsrt --enable-libssh --enable-libsvtav1 --enable-libtesseract --enable-libtheora --enable-libvidstab --enable-libvmaf --enable-libvorbis --enable-libvpx --enable-libwebp --enable-libx264 --enable-libx265 --enable-libxml2 --enable-libxvid --enable-lzma --enable-libfontconfig --enable-libfreetype --enable-frei0r --enable-libass --enable-libopencore-amrnb --enable-libopencore-amrwb --enable-libopenjpeg --enable-libspeex --enable-libsoxr --enable-libzmq --enable-libzimg --disable-libjack --disable-indev=jack --enable-videotoolbox --enable-audiotoolbox --enable-neon\n",
      "  libavutil      59. 39.100 / 59. 39.100\n",
      "  libavcodec     61. 19.100 / 61. 19.100\n",
      "  libavformat    61.  7.100 / 61.  7.100\n",
      "  libavdevice    61.  3.100 / 61.  3.100\n",
      "  libavfilter    10.  4.100 / 10.  4.100\n",
      "  libswscale      8.  3.100 /  8.  3.100\n",
      "  libswresample   5.  3.100 /  5.  3.100\n",
      "  libpostproc    58.  3.100 / 58.  3.100\n",
      "Input #0, mov,mp4,m4a,3gp,3g2,mj2, from 'WorldWander/static/videos/comparison/three2one/case5/TrajectoryCrafter.mp4':\n",
      "  Metadata:\n",
      "    major_brand     : isom\n",
      "    minor_version   : 512\n",
      "    compatible_brands: isomiso2avc1mp41\n",
      "    encoder         : Lavf61.7.100\n",
      "  Duration: 00:00:06.13, start: 0.000000, bitrate: 5149 kb/s\n",
      "  Stream #0:0[0x1](und): Video: h264 (High) (avc1 / 0x31637661), yuv420p(progressive), 1280x704, 5147 kb/s, 8 fps, 8 tbr, 16384 tbn (default)\n",
      "      Metadata:\n",
      "        handler_name    : VideoHandler\n",
      "        vendor_id       : [0][0][0][0]\n",
      "        encoder         : Lavc61.19.100 libx264\n",
      "[out#0/mp4 @ 0x153e214f0] Codec AVOption b:a (set bitrate (in bits/s)) has not been used for any stream. The most likely reason is either wrong type (e.g. a video option with no video streams) or that it is a private option of some decoder which was not actually used for any stream.\n",
      "Stream mapping:\n",
      "  Stream #0:0 -> #0:0 (h264 (native) -> hevc (libx265))\n",
      "Press [q] to stop, [?] for help\n",
      "x265 [info]: HEVC encoder version 4.0+1-6318f22\n",
      "x265 [info]: build info [Mac OS X][clang 16.0.0][64 bit] 8bit+10bit+12bit\n",
      "x265 [info]: using cpu capabilities: NEON Neon_DotProd\n",
      "x265 [info]: Main profile, Level-3.1 (Main tier)\n",
      "x265 [info]: Thread pool created using 8 threads\n",
      "x265 [info]: Slices                              : 1\n",
      "x265 [info]: frame threads / pool features       : 3 / wpp(11 rows)\n",
      "x265 [warning]: Source height < 720p; disabling lookahead-slices\n",
      "x265 [info]: Coding QT: max CU size, min CU size : 64 / 8\n",
      "x265 [info]: Residual QT: max TU size, max depth : 32 / 1 inter / 1 intra\n",
      "x265 [info]: ME / range / subpel / merge         : star / 57 / 3 / 3\n",
      "x265 [info]: Keyframe min / max / scenecut / bias  : 8 / 250 / 40 / 5.00 \n",
      "x265 [info]: Lookahead / bframes / badapt        : 25 / 4 / 2\n",
      "x265 [info]: b-pyramid / weightp / weightb       : 1 / 1 / 0\n",
      "x265 [info]: References / ref-limit  cu / depth  : 4 / on / on\n",
      "x265 [info]: AQ: mode / str / qg-size / cu-tree  : 2 / 1.0 / 32 / 1\n",
      "x265 [info]: Rate Control / qCompress            : CRF-26.0 / 0.60\n",
      "x265 [info]: tools: rect limit-modes rd=4 psy-rd=2.00 rdoq=2 psy-rdoq=1.00\n",
      "x265 [info]: tools: rskip mode=1 signhide tmvp strong-intra-smoothing deblock\n",
      "x265 [info]: tools: sao\n",
      "Output #0, mp4, to 'WorldWander/static/videos/comparison/three2one/case5/TrajectoryCrafter_compressed.mp4':\n",
      "  Metadata:\n",
      "    major_brand     : isom\n",
      "    minor_version   : 512\n",
      "    compatible_brands: isomiso2avc1mp41\n",
      "    encoder         : Lavf61.7.100\n",
      "  Stream #0:0(und): Video: hevc (hev1 / 0x31766568), yuv420p(tv, progressive), 1280x704, q=2-31, 8 fps, 16384 tbn (default)\n",
      "      Metadata:\n",
      "        handler_name    : VideoHandler\n",
      "        vendor_id       : [0][0][0][0]\n",
      "        encoder         : Lavc61.19.100 libx265\n",
      "      Side data:\n",
      "        cpb: bitrate max/min/avg: 0/0/0 buffer size: 0 vbv_delay: N/A\n",
      "frame=   41 fps= 16 q=23.1 size=     256KiB time=00:00:04.87 bitrate= 430.3kbits/s speed=1.93x     \r"
     ]
    },
    {
     "name": "stdout",
     "output_type": "stream",
     "text": [
      "✅ 压缩完成：WorldWander/static/videos/comparison/three2one/case5/TrajectoryCrafter_compressed.mp4\n"
     ]
    },
    {
     "name": "stderr",
     "output_type": "stream",
     "text": [
      "[mp4 @ 0x153e20da0] Starting second pass: moving the moov atom to the beginning of the file\n",
      "[out#0/mp4 @ 0x153e214f0] video:520KiB audio:0KiB subtitle:0KiB other streams:0KiB global headers:2KiB muxing overhead: 0.728299%\n",
      "frame=   49 fps= 17 q=27.3 Lsize=     524KiB time=00:00:05.87 bitrate= 730.5kbits/s speed=2.01x    \n",
      "x265 [info]: frame I:      1, Avg QP:23.26  kb/s: 1351.30 \n",
      "x265 [info]: frame P:     11, Avg QP:23.11  kb/s: 1307.48 \n",
      "x265 [info]: frame B:     37, Avg QP:26.51  kb/s: 495.70  \n",
      "x265 [info]: Weighted P-Frames: Y:18.2% UV:18.2%\n",
      "\n",
      "encoded 49 frames in 2.91s (16.82 fps), 695.40 kb/s, Avg QP:25.68\n"
     ]
    }
   ],
   "source": [
    "import subprocess\n",
    "from pathlib import Path\n",
    "\n",
    "def compress_video(\n",
    "    input_path,\n",
    "    output_path=None,\n",
    "    codec=\"libx265\",   # 不兼容就改 'libx264'\n",
    "    crf=26,            # 18 清晰但大，26~28 比较省空间\n",
    "    preset=\"slow\",     # medium / slow / slower\n",
    "    audio_bitrate=\"96k\"\n",
    "):\n",
    "    \"\"\"\n",
    "    压缩视频（不改变 fps），尽量减小体积 & 控制质量损失。\n",
    "\n",
    "    :param input_path: 输入视频路径\n",
    "    :param output_path: 输出视频路径（默认同目录加 _compressed）\n",
    "    :param codec: 视频编码器: 'libx265' 或 'libx264'\n",
    "    :param crf: 质量参数，越小越清晰、文件越大（推荐 23~30）\n",
    "    :param preset: 编码速度/压缩比，越慢体积越小\n",
    "    :param audio_bitrate: 音频码率\n",
    "    \"\"\"\n",
    "    input_path = Path(input_path)\n",
    "    if output_path is None:\n",
    "        output_path = input_path.with_name(input_path.stem + \"_compressed.mp4\")\n",
    "    else:\n",
    "        output_path = Path(output_path)\n",
    "\n",
    "    cmd = [\n",
    "        \"ffmpeg\",\n",
    "        \"-i\", str(input_path),\n",
    "        \"-vcodec\", codec,\n",
    "        \"-crf\", str(crf),\n",
    "        \"-preset\", preset,\n",
    "        \"-acodec\", \"aac\",\n",
    "        \"-b:a\", audio_bitrate,\n",
    "        \"-movflags\", \"+faststart\",  # 提前写 moov，网页播放更快开始\n",
    "        \"-y\",                       # 覆盖输出文件\n",
    "        str(output_path)\n",
    "    ]\n",
    "\n",
    "    print(\"Running:\", \" \".join(cmd))\n",
    "    subprocess.run(cmd, check=True)\n",
    "    print(f\"✅ 压缩完成：{output_path}\")\n",
    "\n",
    "if __name__ == \"__main__\":\n",
    "    # 示例：直接改成你自己视频路径跑就行\n",
    "    compress_video(\"WorldWander/static/videos/comparison/three2one/case5/TrajectoryCrafter.mp4\")\n"
   ]
  }
 ],
 "metadata": {
  "kernelspec": {
   "display_name": "pytorch",
   "language": "python",
   "name": "python3"
  },
  "language_info": {
   "codemirror_mode": {
    "name": "ipython",
    "version": 3
   },
   "file_extension": ".py",
   "mimetype": "text/x-python",
   "name": "python",
   "nbconvert_exporter": "python",
   "pygments_lexer": "ipython3",
   "version": "3.10.13"
  }
 },
 "nbformat": 4,
 "nbformat_minor": 2
}
